<?xml version="1.0" encoding="UTF-8"?>
<svg id="Capa_1" xmlns="http://www.w3.org/2000/svg" version="1.1" viewBox="0 0 357.45 266.1">
  <!-- Generator: Adobe Illustrator 30.6.0, SVG Export Plug-In . SVG Version: 2.1.4 Build 109)  -->
  <defs>
    <style>
      .st0 {
        fill: #1c1c1b;
      }

      .st1 {
        fill: #fff;
      }
    </style>
  </defs>
  <path class="st0" d="M0,1.51c1.25-.06,2.27-.56,3.07-1.51,3.75.75,7.58.72,11.38.7,19.35-.11,38.69.09,58.04-.11,4.52-.82,8.13,1.9,10.83,5.2,26.4,26.93,53.27,53.4,79.72,80.28,15.81,15.94,31.87,31.63,47.53,47.7-4,4.97-8.93,9.07-13.4,13.6-32,32-64.01,64-96,96.01-7.66,7.4-15.3,14.83-22.63,22.58-20.02-.49-40.06-.35-60.09-.34-6.13.19-12.27.23-18.39-.17,17.49-17.24,34.72-34.74,52.31-51.88,22.17-22.16,44-44.67,66.49-66.5,4.27-4.4,8.94-8.42,12.75-13.25C98.49,99.84,64.75,66.47,31.24,32.88,20.72,22.52,10.67,11.71,0,1.51Z"/>
  <path class="st1" d="M147.24.76c22.41-.15,44.82-.04,67.22-.05,4.44.14,9.51-.37,13.07,2.86,6.79,5.86,12.71,12.64,19.13,18.89,20.26,20.73,40.92,41.07,61.37,61.62,16.66,16.45,32.74,33.46,49.42,49.88v.66c-37.55,36.79-74.59,74.1-111.8,111.24-6.04,5.95-11.53,12.55-18.34,17.65-2.54,2.14-5.98,2.18-9.1,2.53-8.9-.62-17.84.31-26.76-.01-10.34.25-20.66-.64-31-.36-4.1.12-8.21-.06-12.26-.69,10.82-11.37,22.16-22.22,33.17-33.41,16.89-16.11,32.97-33.03,49.78-49.22,16.15-16.19,32.55-32.12,49.01-48-33.72-34.74-68.2-68.72-102.5-102.88-10.09-10.29-20.59-20.17-30.41-30.71Z"/>
</svg>